<svg version="1.2" baseProfile="tiny-ps" xmlns="http://www.w3.org/2000/svg" viewBox="0 0 200 20" width="200" height="20">
	<title>Revolut Business logo - horizontal - regular-svg</title>
	<style>
		tspan { white-space:pre }
		.shp0 { fill: #000000 } 
		.shp1 { fill: #99a2af } 
	</style>
	<g id="Layer_2">
		<g id="Layer_1-2">
			<path id="Layer" fill-rule="evenodd" class="shp0" d="M59.75 12.66C59.75 14.96 58.99 16.75 57.46 18.07C55.97 19.36 54.17 20 52.08 20C51.6 20.01 51.12 19.97 50.64 19.89C50.16 19.81 49.69 19.69 49.23 19.53C48.78 19.36 48.34 19.16 47.92 18.91C47.5 18.67 47.11 18.39 46.74 18.07C45.25 16.75 44.49 14.96 44.49 12.66C44.49 10.36 45.24 8.57 46.73 7.28C47.1 6.96 47.49 6.67 47.91 6.42C48.33 6.18 48.77 5.97 49.22 5.8C49.68 5.63 50.15 5.51 50.63 5.43C51.11 5.35 51.6 5.31 52.08 5.32C54.17 5.32 55.97 5.97 57.46 7.28C58.99 8.57 59.75 10.36 59.75 12.66ZM49.88 16.08C50.1 16.21 50.33 16.33 50.57 16.42C50.81 16.52 51.06 16.59 51.31 16.63C51.56 16.68 51.82 16.7 52.08 16.69C52.34 16.7 52.6 16.68 52.86 16.63C53.11 16.59 53.36 16.52 53.61 16.43C53.85 16.33 54.08 16.22 54.3 16.08C54.52 15.94 54.73 15.78 54.92 15.6C55.74 14.85 56.13 13.86 56.13 12.66C56.13 11.46 55.74 10.48 54.92 9.75C54.73 9.57 54.53 9.4 54.31 9.26C54.09 9.12 53.86 9 53.62 8.9C53.37 8.81 53.12 8.74 52.86 8.69C52.61 8.64 52.35 8.62 52.08 8.63C51.82 8.62 51.57 8.64 51.31 8.69C51.05 8.74 50.8 8.81 50.56 8.9C50.32 9 50.09 9.12 49.87 9.26C49.66 9.4 49.45 9.57 49.27 9.75C48.48 10.48 48.09 11.46 48.09 12.66C48.09 13.87 48.48 14.85 49.27 15.6C49.46 15.78 49.66 15.94 49.88 16.08Z" />
			<path id="Layer" class="shp0" d="M65.07 19.61L65.07 0L61.53 0L61.53 19.61L65.07 19.61Z" />
			<path id="Layer" class="shp0" d="M76.53 5.71L76.53 13.38C76.53 15.23 75.52 16.46 73.61 16.46C71.67 16.46 70.69 15.23 70.69 13.38L70.69 5.71L67.13 5.71L67.13 13.97C67.13 17.17 69.15 20 73.6 20L73.63 20C78.05 20 80.08 17.11 80.08 13.97L80.08 5.71L76.53 5.71Z" />
			<path id="Layer" class="shp0" d="M40.7 5.71L37.16 15.13L33.62 5.71L29.83 5.71L35.5 19.61L38.82 19.61L44.49 5.71L40.7 5.71Z" />
			<path id="Layer" fill-rule="evenodd" class="shp0" d="M29.85 13.5L19.09 13.5C19.32 15.63 20.81 16.97 22.93 16.97C24.64 16.97 25.91 16.14 26.78 14.43L29.43 15.94C28.11 18.66 25.94 20 22.87 20C22.4 20.01 21.93 19.97 21.46 19.89C21 19.8 20.55 19.67 20.11 19.5C19.67 19.32 19.25 19.1 18.86 18.84C18.47 18.59 18.1 18.29 17.77 17.95C16.39 16.58 15.69 14.82 15.69 12.66C15.69 10.5 16.39 8.77 17.8 7.4C18.14 7.06 18.52 6.76 18.92 6.5C19.33 6.23 19.76 6.01 20.21 5.83C20.66 5.66 21.12 5.52 21.6 5.44C22.07 5.35 22.55 5.31 23.04 5.32C25.04 5.32 26.67 5.96 27.94 7.28C29.2 8.6 29.85 10.25 29.85 12.27L29.85 13.5ZM22.92 8.01C21.09 8.01 19.63 9.27 19.09 10.92L26.58 10.92C26.25 9.13 24.92 8.01 22.92 8.01Z" />
			<path id="Layer" fill-rule="evenodd" class="shp0" d="M11.44 19.61L6.87 11.65L3.72 11.65L3.72 19.61L0 19.61L0 0L8.42 0C12.73 0 15.43 2.16 15.43 5.55C15.43 8.32 13.94 10.23 10.93 11.32L15.69 19.61L11.44 19.61ZM3.72 3.25L3.72 8.4L8.42 8.4C10.61 8.4 11.71 7.53 11.71 5.83C11.71 4.12 10.62 3.25 8.42 3.25L3.72 3.25Z" />
			<path id="Layer" class="shp0" d="M86.1 20C85.56 20 85.02 19.89 84.52 19.69C84.01 19.48 83.56 19.18 83.18 18.79C82.79 18.41 82.49 17.96 82.28 17.46C82.07 16.96 81.96 16.42 81.96 15.88L81.96 1.96L85.51 1.96L85.51 5.72L88.55 5.72L88.55 8.58L85.51 8.58L85.51 15.65C85.51 15.81 85.54 15.97 85.6 16.12C85.66 16.26 85.75 16.4 85.87 16.51C85.98 16.62 86.11 16.71 86.26 16.77C86.41 16.83 86.57 16.86 86.72 16.86L88.55 16.86L88.55 20L86.1 20Z" />
			<path id="Layer" fill-rule="evenodd" class="shp1" d="M98.4 0L106.3 0C109.62 0 112.04 1.88 112.04 5.1C112.04 7.23 111.02 8.46 109.56 9.1L109.56 9.22C111.08 9.83 112.77 11.18 112.77 13.95C112.77 17.54 110.35 19.61 106.5 19.61L98.4 19.61L98.4 0ZM105.71 8.4C107.99 8.4 109.53 7.39 109.53 5.1C109.53 3.25 108.27 2.18 106.02 2.18L100.81 2.18L100.81 8.4L105.71 8.4ZM106.21 17.39C108.55 17.39 110.24 16.19 110.24 13.95C110.24 11.65 108.72 10.53 106.21 10.53L100.81 10.53L100.81 17.39L106.21 17.39Z" />
			<path id="Layer" class="shp1" d="M147.79 5.71L149.84 5.71L150.03 7.95L150.15 7.95C150.91 6.5 152.37 5.46 154.59 5.46C157.77 5.46 159.62 7.45 159.62 10.73L159.62 19.61L157.26 19.61L157.26 11.09C157.26 8.85 156.22 7.56 153.94 7.56C151.55 7.56 150.15 9.24 150.15 12.13L150.15 19.61L147.79 19.61L147.79 5.71Z" />
			<path id="Layer" class="shp1" d="M183.15 11.51C180.64 11.04 179.62 10.37 179.62 9.2C179.62 7.97 180.98 7.52 182.26 7.52C183.95 7.52 185.14 8.32 185.78 9.89L185.82 9.99L185.91 9.94L187.55 8.98L187.62 8.95L187.59 8.87C186.67 6.67 184.87 5.55 182.23 5.55C179.87 5.55 177.47 6.83 177.47 9.29C177.47 11.33 179.11 12.76 182.08 13.32C184.52 13.77 185.47 14.43 185.47 15.65C185.47 17.08 184.36 17.96 182.56 17.96C180.76 17.96 179.39 16.86 178.65 14.86L178.62 14.76L178.52 14.81L176.75 15.9L176.69 15.94L176.72 16.01C177.68 18.5 179.87 19.99 182.56 19.99C184.15 19.99 185.49 19.53 186.44 18.66C186.66 18.46 186.85 18.25 187.02 18.01C187.19 17.78 187.33 17.52 187.44 17.26C187.56 16.99 187.65 16.72 187.71 16.43C187.76 16.15 187.79 15.86 187.79 15.57C187.8 13.43 186.27 12.1 183.15 11.51Z" />
			<path id="Layer" class="shp1" d="M195.3 11.51C192.79 11.04 191.76 10.37 191.76 9.2C191.76 7.97 193.12 7.52 194.4 7.52C196.09 7.52 197.28 8.32 197.92 9.89L197.96 9.99L198.05 9.94L199.69 8.98L199.76 8.95L199.73 8.87C198.82 6.67 197.02 5.55 194.38 5.55C192.02 5.55 189.62 6.83 189.62 9.29C189.62 11.33 191.26 12.76 194.23 13.32C196.68 13.77 197.63 14.43 197.63 15.65C197.63 17.08 196.51 17.96 194.71 17.96C192.91 17.96 191.54 16.86 190.81 14.86L190.77 14.76L190.68 14.81L188.91 15.9L188.84 15.94L188.87 16.01C189.83 18.5 192.02 19.99 194.72 19.99C196.31 19.99 197.65 19.53 198.6 18.66C198.81 18.46 199 18.25 199.17 18.01C199.34 17.78 199.48 17.52 199.6 17.26C199.71 16.99 199.8 16.72 199.86 16.43C199.92 16.15 199.95 15.86 199.94 15.57C199.94 13.43 198.43 12.1 195.3 11.51Z" />
			<path id="Layer" class="shp1" d="M135.1 11.51C132.59 11.04 131.56 10.37 131.56 9.2C131.56 7.97 132.93 7.52 134.21 7.52C135.9 7.52 137.09 8.32 137.73 9.89L137.77 9.99L137.86 9.94L139.5 8.98L139.57 8.95L139.54 8.87C138.62 6.67 136.81 5.55 134.18 5.55C131.82 5.55 129.42 6.83 129.42 9.29C129.42 11.33 131.06 12.76 134.03 13.32C136.47 13.77 137.42 14.43 137.42 15.65C137.42 17.08 136.31 17.96 134.51 17.96C132.71 17.96 131.34 16.86 130.6 14.86L130.57 14.76L130.47 14.81L128.7 15.9L128.64 15.94L128.67 16.01C129.63 18.5 131.82 19.99 134.51 19.99C136.1 19.99 137.44 19.53 138.39 18.66C138.61 18.46 138.8 18.25 138.97 18.01C139.14 17.78 139.28 17.52 139.4 17.26C139.51 16.99 139.6 16.72 139.66 16.43C139.71 16.15 139.74 15.86 139.74 15.57C139.73 13.43 138.22 12.1 135.1 11.51Z" />
			<path id="Layer" class="shp1" d="M142.31 3.8C142.23 3.73 142.16 3.64 142.1 3.55C142.04 3.46 141.99 3.37 141.95 3.27C141.91 3.17 141.88 3.06 141.86 2.96C141.84 2.85 141.83 2.74 141.84 2.64C141.83 2.53 141.84 2.42 141.86 2.32C141.88 2.21 141.91 2.11 141.95 2.01C141.99 1.91 142.04 1.81 142.1 1.73C142.16 1.64 142.23 1.56 142.31 1.48C142.38 1.41 142.46 1.35 142.55 1.29C142.63 1.23 142.72 1.19 142.82 1.15C142.92 1.11 143.01 1.08 143.12 1.06C143.22 1.05 143.32 1.04 143.42 1.04C143.52 1.04 143.63 1.04 143.73 1.06C143.83 1.08 143.93 1.11 144.03 1.15C144.13 1.19 144.22 1.23 144.3 1.29C144.39 1.35 144.47 1.41 144.55 1.48C144.63 1.55 144.7 1.64 144.76 1.72C144.82 1.81 144.87 1.91 144.91 2.01C144.96 2.11 144.99 2.21 145 2.31C145.02 2.42 145.03 2.53 145.02 2.64C145.03 2.74 145.02 2.85 145 2.96C144.98 3.06 144.95 3.17 144.91 3.27C144.87 3.37 144.82 3.46 144.76 3.55C144.7 3.64 144.63 3.73 144.55 3.8C144.47 3.87 144.39 3.93 144.3 3.99C144.22 4.04 144.12 4.09 144.03 4.12C143.93 4.16 143.83 4.19 143.73 4.21C143.63 4.23 143.52 4.23 143.42 4.23C143.32 4.23 143.22 4.23 143.12 4.21C143.02 4.19 142.92 4.16 142.82 4.12C142.73 4.09 142.64 4.04 142.55 3.99C142.46 3.93 142.38 3.87 142.31 3.8L142.31 3.8Z" />
			<path id="Layer" class="shp1" d="M144.59 5.67L142.28 5.67L142.28 19.61L144.59 19.61L144.59 5.67Z" />
			<path id="Layer" fill-rule="evenodd" class="shp1" d="M175.21 13.29L163.99 13.29C164.19 16.17 165.95 18.02 168.57 18.02C171.19 18.02 172.32 16.49 173.07 15L173.15 14.85L174.87 15.87C174.81 15.99 174.74 16.12 174.67 16.24C174.61 16.36 174.53 16.49 174.46 16.61C174.39 16.73 174.31 16.85 174.24 16.97C174.16 17.08 174.08 17.2 174 17.32C173.85 17.52 173.69 17.72 173.52 17.91C173.35 18.1 173.17 18.28 172.98 18.45C172.78 18.61 172.58 18.77 172.37 18.91C172.16 19.05 171.94 19.18 171.72 19.3C171.47 19.42 171.21 19.53 170.95 19.62C170.68 19.71 170.42 19.78 170.15 19.84C169.87 19.9 169.6 19.94 169.32 19.97C169.05 19.99 168.77 20.01 168.49 20C164.74 20 161.66 17 161.66 12.78C161.66 8.56 164.74 5.56 168.57 5.56C172.73 5.56 175.21 8.34 175.21 12.55L175.21 13.29ZM172.88 11.22C172.71 9.36 171.2 7.54 168.58 7.54C166.38 7.54 164.75 8.91 164.19 11.22L172.88 11.22Z" />
			<path id="Layer" class="shp1" d="M124.33 5.84L124.33 14.32C124.33 16.53 123.35 17.95 120.9 17.95C118.45 17.95 117.46 16.53 117.46 14.32L117.46 5.84L115.16 5.84L115.16 14.71C115.16 17.9 117.49 20 120.9 20C124.31 20 126.64 17.9 126.64 14.71L126.64 5.84L124.33 5.84Z" />
		</g>
	</g>
</svg>